<?xml version="1.0" encoding="utf-8"?>
<!-- Generator: Adobe Illustrator 23.0.0, SVG Export Plug-In . SVG Version: 6.00 Build 0)  -->
<svg version="1.1" id="Layer_1" xmlns="http://www.w3.org/2000/svg" xmlns:xlink="http://www.w3.org/1999/xlink" x="0px" y="0px"
	 viewBox="0 0 500 500" style="enable-background:new 0 0 500 500;" xml:space="preserve">
<style type="text/css">
	*{fill:#FFFFFF;}
</style>
<g>
	<g>
		<path d="M154.04,243.43c-30.44,12.38-59.2,6.4-86.36-9.36c-28.14-16.32-48.51-39.95-59.57-70.74
			c-8.02-22.35-9.66-45.04,1.36-67.17c8.4-16.87,22.07-27.44,40.18-32.22c20.49-5.4,40.42-2.55,59.48,5.74
			c37.96,16.52,64.27,44.22,76.87,83.88c6.27,19.73,6.94,37.12-1.65,59c16.6,16.89,32.84,33.56,49.25,50.06
			c28.64,28.79,57.38,57.48,86.08,86.21c30.76,30.79,61.31,61.78,92.37,92.26c12.46,12.23,7.77,31.1-6.01,36.31
			c-9.67,3.65-17.64,0.98-24.65-6.03c-34.11-34.12-68.23-68.23-102.35-102.35c-39.38-39.38-78.77-78.76-118.13-118.16
			C158.64,248.59,156.54,246.14,154.04,243.43z"/>
		<path d="M338.13,175.71c5.43,5.41,10.47,10.43,15.82,15.76c1.12-1.04,2.41-2.18,3.63-3.39c29.21-29.19,58.4-58.4,87.61-87.6
			c6.33-6.33,12.14-7.29,17.52-2.98c4.72,3.79,5.82,10.06,2.45,15.12c-1.33,2-2.99,3.81-4.7,5.52
			c-28.72,28.77-57.47,57.51-86.22,86.24c-1.26,1.26-2.65,2.37-3.97,3.54c5.64,5.54,10.92,10.72,16.45,16.15
			c19.06-19.13,38.36-38.51,57.68-57.87c11.66-11.69,23.32-23.39,35.05-35.03c3.45-3.43,7.53-4.87,12.38-3.07
			c4.35,1.61,6.8,4.81,7.48,9.25c0.7,4.56-1.59,7.98-4.7,11.08c-16.18,16.11-32.3,32.27-48.44,48.42
			c-14.89,14.89-29.54,30.02-44.74,44.58c-10.28,9.84-21.66,18.37-35.3,23.31c-20.01,7.25-39.46,6.54-58.27-3.94
			c-1.82-1.02-3.68-1.98-6.11-3.28c-7.89,7.79-15.9,15.7-23.81,23.51c-9.47-9.51-19.5-19.58-29.45-29.56
			c7.55-7.77,15.29-15.73,22.79-23.44c-2.98-7.47-6.78-14.8-8.84-22.59c-6.04-22.83,0.01-43.48,13.6-62.03
			c5.89-8.04,12.62-15.55,19.64-22.64c28.12-28.45,56.51-56.64,84.79-84.92c4.05-4.05,8.4-7.11,14.56-4.74
			c6.71,2.58,9.44,10.25,5.62,16.37c-1.26,2.03-2.95,3.84-4.65,5.54c-28.83,28.88-57.7,57.73-86.55,86.6
			c-1.23,1.23-2.4,2.52-3.59,3.77c5.45,5.27,10.67,10.31,16.61,16.05c4.56-4.75,9.48-10.04,14.58-15.16
			c25.7-25.81,51.42-51.61,77.19-77.34c6.18-6.17,14.89-5.43,18.98,1.35c2.76,4.59,1.64,10.54-3.09,15.28
			c-15.54,15.59-31.13,31.14-46.7,46.71c-14.32,14.31-28.64,28.62-42.95,42.94C339.68,173.99,338.95,174.83,338.13,175.71z"/>
		<path d="M191.76,307.68c10.38,10.29,20.37,20.19,30.61,30.34c-13.05,13-26.23,26.09-39.36,39.22
			c-30.55,30.55-61.06,61.14-91.63,91.68c-8.84,8.83-17.76,10.53-27.5,5.46c-11.66-6.07-15.23-22.13-6.35-31.86
			c10.47-11.46,21.69-22.24,32.66-33.24c22.75-22.8,45.55-45.55,68.32-68.33C169.59,329.86,180.68,318.76,191.76,307.68z"/>
	</g>
</g>
</svg>
